<?xml version="1.0" standalone="no"?>
<!DOCTYPE svg PUBLIC "-//W3C//DTD SVG 20010904//EN"
 "http://www.w3.org/TR/2001/REC-SVG-20010904/DTD/svg10.dtd">
<svg version="1.0" xmlns="http://www.w3.org/2000/svg"
 width="1920.000000pt" height="1920.000000pt" viewBox="0 0 1920.000000 1920.000000"
 preserveAspectRatio="xMidYMid meet">

<g transform="translate(0.000000,1920.000000) scale(0.100000,-0.100000)"
fill="#000000" stroke="none">
<path d="M15930 16384 c-25 -9 -63 -29 -85 -44 -22 -16 -2954 -2944 -6516
-6507 -5330 -5331 -6480 -6487 -6500 -6528 -20 -42 -24 -66 -24 -150 0 -87 3
-107 26 -155 14 -30 46 -75 70 -99 24 -24 69 -56 99 -70 48 -23 68 -26 155
-26 84 0 108 4 150 24 41 20 1197 1171 6546 6520 5349 5349 6500 6505 6520
6546 20 42 24 66 24 150 0 87 -3 107 -26 155 -33 70 -99 136 -169 169 -70 33
-200 40 -270 15z"/>
<path d="M3965 13799 c-307 -45 -559 -272 -642 -579 -17 -62 -18 -249 -18
-3620 0 -3371 1 -3558 18 -3620 61 -225 211 -408 412 -505 141 -68 188 -77
440 -82 l220 -5 565 566 565 566 -540 0 -540 0 500 497 c275 273 797 791 1160
1152 363 360 819 812 1012 1005 l353 351 265 -265 265 -265 2408 2408 2407
2407 -4395 -1 c-2443 -1 -4422 -5 -4455 -10z m2404 -1470 c360 -83 628 -387
672 -763 21 -178 -23 -378 -119 -541 -56 -94 -201 -244 -284 -293 -154 -91
-300 -132 -472 -132 -249 0 -457 90 -631 272 -163 169 -245 374 -245 607 1
563 527 977 1079 850z"/>
<path d="M12970 11976 l-1835 -1836 1810 -1810 1810 -1810 -3620 0 -3620 0
-565 -565 -565 -565 4430 2 c4267 3 4432 4 4495 21 100 29 238 100 311 160
115 96 214 253 256 407 17 62 18 249 18 3620 0 3371 -1 3558 -18 3620 -61 225
-211 408 -412 505 -141 68 -188 77 -440 82 l-220 5 -1835 -1836z"/>
</g>
</svg>
